# xmcd
# 
# Track frame offsets:
#     150
#     29417
#     62621
#     88400
#     107677
#     129474
# 
# Disc length: 2423
# 
# Revision: 1
# Processed by: cddbd v1.5.2PL0 Copyright (c) Steve Scherf et al.
# Submitted via: BonkEnc v1.0.5
# 
DISCID=4d097506
DTITLE=Benny Golson Sextet - The Modern Touch
DYEAR=1957
DGENRE=Jazz
TTITLE0=Out Of The Past
TTITLE1=Reunion
TTITLE2=Venetian Breeze
TTITLE3=Hymn to The Orient
TTITLE4=Namely You
TTITLE5=Blues On Down
EXTD=YEAR: 1957
EXTT0=
EXTT1=
EXTT2=
EXTT3=
EXTT4=
EXTT5=
PLAYORDER=
